<svg width="24" height="24" viewBox="0 0 24 24" fill="none" xmlns="http://www.w3.org/2000/svg">
<path d="M15.9375 8.48438L10.5 13.9688L8.01562 11.4844C7.73438 11.2031 7.21875 11.2031 6.9375 11.4844C6.65625 11.7656 6.65625 12.2812 6.9375 12.5625L9.9375 15.5625C10.0781 15.7031 10.2656 15.75 10.5 15.75C10.6875 15.75 10.875 15.7031 11.0156 15.5625L17.0156 9.5625C17.2969 9.28125 17.2969 8.76562 17.0156 8.48438C16.7344 8.20312 16.2188 8.20312 15.9375 8.48438ZM12 0C5.34375 0 0 5.39062 0 12C0 18.6562 5.34375 24 12 24C18.6094 24 24 18.6562 24 12C24 5.39062 18.6094 0 12 0ZM12 22.5C6.1875 22.5 1.5 17.8125 1.5 12C1.5 6.23438 6.1875 1.5 12 1.5C17.7656 1.5 22.5 6.23438 22.5 12C22.5 17.8125 17.7656 22.5 12 22.5Z" fill="#BEBEBE"/>
</svg>
