<svg width="41" height="41" viewBox="0 0 41 41" fill="none" xmlns="http://www.w3.org/2000/svg">
<path d="M22.8183 20.6463V12.2088C22.8183 11.1931 21.959 10.3338 20.9433 10.3338C19.8496 10.3338 19.0683 11.1931 19.0683 12.2088V21.5838C19.0683 22.2088 19.3027 22.7556 19.7715 23.1463L24.7715 26.8963C25.084 27.1306 25.4746 27.2088 25.8652 27.2088C26.4121 27.2088 26.959 26.9744 27.3496 26.5056C27.9746 25.6463 27.8183 24.4744 26.959 23.8494L22.8183 20.6463ZM20.8652 0.333771C9.77147 0.333771 0.865221 9.31815 0.865221 20.3338C0.865221 31.4275 9.77147 40.3338 20.8652 40.3338C31.8808 40.3338 40.7871 31.4275 40.7871 20.3338C40.7871 9.31815 31.959 0.333771 20.8652 0.333771ZM20.9433 36.5838C11.959 36.5838 4.69335 29.3181 4.69335 20.3338C4.69335 11.4275 11.959 4.08377 20.9433 4.08377C29.8496 4.08377 37.1933 11.4275 37.1933 20.3338C37.1933 29.3181 29.8496 36.5838 20.9433 36.5838Z" fill="#FF1E1E"/>
</svg>
