<svg width="41" height="40" viewBox="0 0 41 40" fill="none" xmlns="http://www.w3.org/2000/svg">
<path d="M22.875 20.3125V11.875C22.875 10.8594 22.0156 10 21 10C19.9062 10 19.125 10.8594 19.125 11.875V21.25C19.125 21.875 19.3594 22.4219 19.8281 22.8125L24.8281 26.5625C25.1406 26.7969 25.5312 26.875 25.9219 26.875C26.4688 26.875 27.0156 26.6406 27.4062 26.1719C28.0312 25.3125 27.875 24.1406 27.0156 23.5156L22.875 20.3125ZM20.9219 0C9.82812 0 0.921875 8.98438 0.921875 20C0.921875 31.0938 9.82812 40 20.9219 40C31.9375 40 40.8438 31.0938 40.8438 20C40.8438 8.98438 32.0156 0 20.9219 0ZM21 36.25C12.0156 36.25 4.75 28.9844 4.75 20C4.75 11.0938 12.0156 3.75 21 3.75C29.9062 3.75 37.25 11.0938 37.25 20C37.25 28.9844 29.9062 36.25 21 36.25Z" fill="#FF1E1E"/>
</svg>
