<svg width="32" height="24" viewBox="0 0 32 24" fill="none" xmlns="http://www.w3.org/2000/svg">
<path d="M28 0H4C1.75 0 0 1.8125 0 4V20C0 22.25 1.75 24 4 24H28C30.1875 24 32 22.25 32 20V4C32 1.8125 30.1875 0 28 0ZM4 2H28C29.0625 2 30 2.9375 30 4V6.3125L17.75 15.4375C16.6875 16.25 15.25 16.25 14.1875 15.4375L2 6.25V4C2 2.9375 2.875 2 4 2ZM30 20C30 21.125 29.0625 22 28 22H4C2.875 22 2 21.125 2 20V8.75L13 17C13.875 17.6875 14.9375 18.0625 16 18.0625C17 18.0625 18.0625 17.6875 19 17L30 8.75V20Z" fill="#BEBEBE"/>
</svg>
