<svg width="33" height="33" viewBox="0 0 33 33" fill="none" xmlns="http://www.w3.org/2000/svg">
<path d="M30.25 21.6875L23.875 18.9375C22.75 18.5 21.375 18.8125 20.625 19.8125L18.5 22.3125C15.25 20.5 12.5 17.75 10.6875 14.5L13.25 12.4375C14.1875 11.625 14.5 10.25 14 9.125L11.3125 2.75C10.75 1.5 9.375 0.8125 8.0625 1.125L2.1875 2.5C0.875 2.75 0 3.875 0 5.25C0 20.5625 12.4375 33 27.75 33C29.125 33 30.25 32.125 30.5625 30.8125L31.875 24.9375C32.1875 23.625 31.5 22.25 30.25 21.6875ZM28.5625 30.375C28.5 30.75 28.1875 31.0625 27.75 31.0625C13.5625 31.0625 2 19.4375 2 5.25C2 4.8125 2.25 4.5 2.625 4.4375L8.5 3.0625C8.5625 3.0625 8.625 3 8.6875 3C9 3 9.3125 3.25 9.5 3.5625L12.1875 9.875C12.3125 10.25 12.25 10.625 11.9375 10.875L8.8125 13.4375C8.4375 13.75 8.3125 14.25 8.5625 14.6875C10.625 18.875 14.125 22.375 18.375 24.4375C18.75 24.6875 19.25 24.5625 19.5625 24.1875L22.125 21.0625C22.375 20.75 22.75 20.6875 23.125 20.8125L29.4375 23.5C29.8125 23.6875 30.0625 24.0625 29.9375 24.5L28.5625 30.375Z" fill="#BEBEBE"/>
</svg>
