<svg width="28" height="32" viewBox="0 0 28 32" fill="none" xmlns="http://www.w3.org/2000/svg">
<path d="M14 16C18.375 16 22 12.4375 22 8C22 3.625 18.375 0 14 0C9.5625 0 6 3.625 6 8C6 12.4375 9.5625 16 14 16ZM14 2C17.25 2 20 4.75 20 8C20 11.3125 17.25 14 14 14C10.6875 14 8 11.3125 8 8C8 4.75 10.6875 2 14 2ZM17.125 19H10.8125C4.8125 19 0 23.875 0 29.875C0 31.0625 0.9375 32 2.125 32H25.8125C27 32 28 31.0625 28 29.875C28 23.875 23.125 19 17.125 19ZM25.8125 30H2.125C2.0625 30 2 29.9375 2 29.875C2 25 5.9375 21 10.8125 21H17.125C22 21 26 25 26 29.875C26 29.9375 25.875 30 25.8125 30Z" fill="#BEBEBE"/>
</svg>
