<svg width="31" height="41" viewBox="0 0 31 41" fill="none" xmlns="http://www.w3.org/2000/svg">
<path d="M15.3315 0.333771C6.97217 0.333771 0.331543 7.05252 0.331543 15.3338C0.331543 21.4275 2.36279 23.1463 13.769 39.5525C14.1597 40.0994 14.7065 40.3338 15.3315 40.3338C15.8784 40.3338 16.4253 40.0994 16.8159 39.5525C28.2222 23.0681 30.3315 21.4275 30.3315 15.3338C30.3315 7.05252 23.6128 0.333771 15.3315 0.333771ZM15.3315 35.1775C13.9253 33.2244 12.6753 31.4275 11.5815 29.9431C4.78467 20.2556 4.08154 19.0056 4.08154 15.3338C4.08154 9.1619 9.08154 4.08377 15.3315 4.08377C21.5034 4.08377 26.5815 9.1619 26.5815 15.3338C26.5815 19.0056 25.8003 20.2556 19.0034 29.9431C17.9097 31.4275 16.6597 33.2244 15.3315 35.1775ZM15.3315 9.08377C11.8159 9.08377 9.08154 11.8181 9.08154 15.3338C9.08154 18.7713 11.8159 21.5838 15.3315 21.5838C18.769 21.5838 21.5815 18.7713 21.5815 15.3338C21.5815 11.8181 18.769 9.08377 15.3315 9.08377ZM15.3315 17.8338C13.9253 17.8338 12.8315 16.74 12.8315 15.3338C12.8315 14.0056 13.9253 12.8338 15.3315 12.8338C16.6597 12.8338 17.8315 14.0056 17.8315 15.3338C17.8315 16.74 16.6597 17.8338 15.3315 17.8338Z" fill="#FF1E1E"/>
</svg>