<svg width="60" height="60" viewBox="0 0 60 60" fill="none" xmlns="http://www.w3.org/2000/svg">
<g>
<path d="M12.9508 31.3656C12.9508 31.3766 12.9508 31.3862 12.9508 31.3959C13.9856 33.2208 14.5272 35.2837 14.5223 37.3815V39.6984C18.9405 37.9704 24.1082 37.059 29.5093 37.059C36.6699 37.059 41.9282 38.6196 44.6967 39.6916L44.7158 37.3801C44.7158 34.8834 45.3047 32.6504 46.3355 30.8399L48.6688 15.4672C49.2714 11.5239 48.2296 7.75214 45.7315 4.84507C43.0824 1.76789 39.0705 0 34.725 0H24.5159C20.1621 0 16.1432 1.76789 13.5038 4.84919C11.0086 7.75768 9.96546 11.5295 10.5681 15.4701L12.9508 31.3656Z" fill="black"/>
<path d="M54.2929 28.8237C49.8087 28.8237 47.4631 33.1293 47.4631 37.3802V39.9276C47.4631 40.8761 47.0184 41.7655 46.2992 42.2444C45.6778 42.6624 44.8874 42.7381 44.1978 42.4462C41.7958 41.4594 36.6981 39.8041 29.5115 39.8041C24.2505 39.8041 19.2476 40.7182 15.0434 42.4462C14.3537 42.7393 13.5626 42.664 12.9407 42.2458C12.2228 41.7655 11.7769 40.8732 11.7769 39.929V37.3802C11.7769 32.5763 8.48272 28.8237 4.27177 28.8237C1.95353 28.8237 0.687988 31.5687 0.687988 32.9687C0.687988 34.6708 1.88353 36.5813 3.35353 37.2237C3.50318 37.2896 3.66789 37.361 3.84353 37.424C5.17766 37.9566 7.65919 38.9462 7.65919 41.7902V47.3079C7.65919 49.3667 8.10248 53.8961 11.8071 54.7485C11.7941 54.7981 11.7839 54.8486 11.7769 54.8994V57.6445C11.7769 58.4025 12.3914 59.0171 13.1495 59.0171H14.522C15.2801 59.0171 15.8946 58.4025 15.8946 57.6445V54.9021H43.3457V57.6473C43.3457 58.4053 43.9602 59.0199 44.7183 59.0199H46.0909C46.8489 59.0199 47.4635 58.4053 47.4635 57.6473V54.9022C47.4635 54.8638 47.4443 54.8308 47.4415 54.7938C50.8221 54.1487 51.5811 50.4606 51.5811 47.312V41.7943C51.5811 38.9476 54.0517 37.9581 55.3817 37.4255C55.5533 37.3569 55.7153 37.2882 55.8635 37.2264C57.2512 36.6156 58.3341 34.7435 58.3341 32.9714C58.3351 31.5496 56.6276 28.8237 54.2929 28.8237Z" fill="black"/>
</g>
<defs>
<clipPath id="clip0_100_1886">
<rect width="59.0199" height="59.0199" fill="white"/>
</clipPath>
</defs>
</svg>
